<?xml version="1.0" encoding="utf-8" standalone="no"?>
<!DOCTYPE svg PUBLIC "-//W3C//DTD SVG 1.1//EN"
  "http://www.w3.org/Graphics/SVG/1.1/DTD/svg11.dtd">
<svg width="800" height="500" xmlns="http://www.w3.org/2000/svg" xmlns:xlink="http://www.w3.org/1999/xlink">
  <rect width="100%" height="100%" fill="#e6edf3" />
  <g transform="translate(0,50)">
    <rect x="150" y="0" width="350" height="40" fill="#87ceeb" />
    <text x="510" y="25" font-family="Arial" font-size="14" fill="#333">30 hrs 20 mins</text>
    <text x="10" y="25" font-family="Arial" font-size="18" fill="#333">JavaScript</text>
  </g>
  <g transform="translate(0,100)">
    <rect x="150" y="0" width="289" height="40" fill="#87ceeb" />
    <text x="450" y="25" font-family="Arial" font-size="14" fill="#333">20 hrs 47 mins</text>
    <text x="10" y="25" font-family="Arial" font-size="18" fill="#333">TypeScript</text>
  </g>
  <g transform="translate(0,150)">
    <rect x="150" y="0" width="217" height="40" fill="#87ceeb" />
    <text x="370" y="25" font-family="Arial" font-size="14" fill="#333">15 hrs 37 mins</text>
    <text x="10" y="25" font-family="Arial" font-size="18" fill="#333">Python</text>
  </g>
  <g transform="translate(0,200)">
    <rect x="150" y="0" width="92" height="40" fill="#87ceeb" />
    <text x="250" y="25" font-family="Arial" font-size="14" fill="#333">6 hrs 43 mins</text>
    <text x="10" y="25" font-family="Arial" font-size="18" fill="#333">HTML</text>
  </g>
  <g transform="translate(0,250)">
    <rect x="150" y="0" width="47" height="40" fill="#87ceeb" />
    <text x="210" y="25" font-family="Arial" font-size="14" fill="#333">3 hrs 24 mins</text>
    <text x="10" y="25" font-family="Arial" font-size="18" fill="#333">CSS</text>
  </g>
  <g transform="translate(0,300)">
    <rect x="150" y="0" width="142" height="40" fill="#87ceeb" />
    <text x="300" y="25" font-family="Arial" font-size="14" fill="#333">10 hrs 15 mins</text>
    <text x="10" y="25" font-family="Arial" font-size="18" fill="#333">PHP</text>
  </g>
  <text x="150" y="20" font-family="Arial" font-size="24" fill="#333">Coding Time in the Last Month by Language</text>
  <text x="350" y="470" font-family="Arial" font-size="14" fill="#333">Time Spent (hours)</text>
</svg>
